<svg width="61" height="60" viewBox="0 0 61 60" fill="none" xmlns="http://www.w3.org/2000/svg">
<rect x="0.5" width="60" height="60" rx="30" fill="white" fill-opacity="0.44"/>
<path d="M40.1656 20.7406C40.1656 15.3701 35.7959 11 30.425 11C25.0542 11.0003 20.6844 15.3697 20.6844 20.7406C20.6844 26.1114 25.0539 30.4811 30.425 30.4811C35.7955 30.4815 40.1656 26.112 40.1656 20.7406ZM30.425 11.9609C33.7016 11.9609 36.5596 13.7679 38.0683 16.4347C34.6177 16.7585 32.4769 14.7576 31.6974 13.8522C31.5219 13.6487 31.2839 13.5295 31.0274 13.5171C30.7592 13.505 30.5138 13.6024 30.3159 13.7923C27.7344 16.2633 24.3828 16.1796 23.0315 16.0242C24.5932 13.585 27.3202 11.9609 30.425 11.9609ZM30.425 29.5212C25.5835 29.5212 21.6453 25.5823 21.6453 20.7406C21.6453 19.3732 21.9684 18.0831 22.5286 16.928C23.7038 17.1229 27.7981 17.5297 30.9704 14.4781C31.7847 15.424 33.9186 17.4372 37.3177 17.4372C37.703 17.4372 38.1065 17.4084 38.5243 17.3522C38.9626 18.3955 39.206 19.5399 39.206 20.7406C39.2057 25.582 35.2664 29.5212 30.425 29.5212ZM33.197 22.0972H27.653C27.3878 22.0972 27.1729 22.3121 27.1729 22.5773C27.1729 24.4155 28.6317 25.9108 30.4247 25.9108C32.218 25.9108 33.6768 24.4155 33.6768 22.5773C33.6771 22.3121 33.4625 22.0972 33.197 22.0972ZM30.425 24.9509C29.3201 24.9509 28.3953 24.1369 28.1803 23.0574H32.6703C32.455 24.1369 31.5302 24.9509 30.425 24.9509ZM26.6064 20.0176C26.0094 20.0176 25.559 19.4675 25.559 18.7382C25.559 18.0089 26.0094 17.4592 26.6064 17.4592C27.2033 17.4592 27.6534 18.009 27.6534 18.7382C27.6534 19.4675 27.2034 20.0176 26.6064 20.0176ZM35.2909 18.7382C35.2909 19.4674 34.8406 20.0176 34.2436 20.0176C33.6466 20.0176 33.1969 19.4675 33.1969 18.7382C33.1969 18.0089 33.6469 17.4592 34.2436 17.4592C34.8406 17.4588 35.2909 18.0086 35.2909 18.7382Z" fill="white"/>
<path d="M46.8962 33.299H42.3269C42.0617 33.299 41.8467 33.5136 41.8467 33.7792C41.8467 35.3404 43.0869 36.6107 44.6114 36.6107C46.1358 36.6107 47.376 35.3404 47.376 33.7792C47.3763 33.5136 47.1614 33.299 46.8962 33.299ZM44.6114 35.6508C43.776 35.6508 43.0716 35.0592 42.8667 34.259H46.3562C46.1513 35.0592 45.4468 35.6508 44.6114 35.6508ZM41.4644 31.6695C40.9726 31.6695 40.6013 31.2162 40.6013 30.6151C40.6013 30.0141 40.9723 29.5608 41.4644 29.5608C41.9563 29.5608 42.3272 30.0138 42.3272 30.6151C42.3272 31.2161 41.9562 31.6695 41.4644 31.6695ZM48.6219 30.6151C48.6219 31.2161 48.2506 31.6695 47.7588 31.6695C47.2669 31.6695 46.8963 31.2162 46.8963 30.6151C46.8963 30.0141 47.267 29.5608 47.7588 29.5608C48.251 29.5608 48.6219 30.0138 48.6219 30.6151ZM54.1581 26.1099C53.9867 25.7841 53.6833 25.5611 53.3271 25.4978C53.1714 25.4701 53.0063 25.452 52.8222 25.4429C52.3889 25.4222 51.9272 25.4587 51.4632 25.5119C51.3761 25.4105 51.2693 25.3261 51.1448 25.2678L50.1701 24.8095C50.0436 24.7499 49.9106 24.7221 49.7794 24.7197C49.5253 24.3296 49.2597 23.9513 48.9654 23.6292C48.8472 23.4999 48.7264 23.3817 48.6018 23.2759C48.3252 23.0416 47.9606 22.9498 47.5987 23.0265C47.2391 23.1022 46.9425 23.3315 46.7888 23.6473C46.7864 23.6523 46.7697 23.6874 46.7673 23.6921C46.6585 23.9235 46.5869 24.1572 46.5537 24.3862C46.553 24.3902 46.5517 24.3939 46.551 24.3979C45.9283 24.2442 45.2811 24.1538 44.6117 24.1538C40.1388 24.1538 36.5 27.7927 36.5 32.2656C36.5 36.7388 40.1388 40.3777 44.6117 40.3777C49.0847 40.3777 52.7235 36.7388 52.7235 32.2656C52.7235 31.4577 52.6013 30.6782 52.3803 29.9413C52.7272 29.8602 53.0145 29.6362 53.1849 29.2854C53.293 29.0557 53.365 28.8226 53.3992 28.5913C53.4424 28.2903 53.5729 28.0114 53.7779 27.7847C53.9335 27.6112 54.0685 27.407 54.194 27.1391C54.3424 26.8104 54.3295 26.4354 54.1581 26.1099ZM49.7623 25.6783L50.7362 26.1364L50.1901 27.2986L49.2162 26.8405L49.7623 25.6783ZM46.6451 26.2087C46.7127 26.0644 46.7937 25.9401 46.8845 25.8387C47.2176 25.4704 47.4316 25.016 47.5032 24.5245C47.5233 24.3866 47.5669 24.2476 47.6482 24.0755C47.6867 23.9962 47.7651 23.9721 47.7969 23.9657C47.8083 23.963 47.826 23.9607 47.8471 23.9607C47.8859 23.9607 47.9365 23.9701 47.9817 24.0079C48.0765 24.0883 48.1682 24.179 48.2579 24.2768C48.4947 24.5359 48.721 24.8553 48.9413 25.1905C48.9256 25.2169 48.9075 25.241 48.8941 25.2695L48.8251 25.4161L48.4699 25.2491C48.2298 25.1366 47.9445 25.2394 47.831 25.4791C47.8002 25.545 47.7855 25.6147 47.7855 25.6833C47.7855 25.8635 47.8873 26.0359 48.0611 26.1179L48.4166 26.2853L48.348 26.4316C48.3346 26.4598 48.3276 26.4896 48.3169 26.5184C47.9174 26.5626 47.527 26.5924 47.1775 26.5746C47.0449 26.5679 46.917 26.5559 46.7941 26.5338C46.7047 26.5177 46.6592 26.4481 46.6438 26.4189C46.628 26.3898 46.5965 26.3138 46.6451 26.2087ZM44.6113 39.4181C40.6678 39.4181 37.4595 36.2095 37.4595 32.266C37.4595 28.3225 40.6678 25.1142 44.6113 25.1142C45.126 25.1142 45.6269 25.1714 46.1107 25.2752C45.9831 25.4299 45.8693 25.6017 45.7849 25.7828C45.7805 25.7909 45.7618 25.8297 45.7581 25.8381C45.6094 26.1665 45.6222 26.5415 45.7936 26.867C45.965 27.1928 46.2684 27.4158 46.6246 27.479C46.7803 27.5068 46.9454 27.5249 47.1295 27.5339C47.5631 27.5547 48.0245 27.5179 48.4883 27.465C48.5753 27.5664 48.6821 27.6508 48.8067 27.7094L49.7806 28.1678C49.9069 28.227 50.0408 28.2548 50.1717 28.2572C50.4258 28.6472 50.6917 29.0256 50.9857 29.3477C51.0734 29.4438 51.1584 29.5268 51.2435 29.6049C51.5753 30.4285 51.7625 31.3251 51.7625 32.266C51.7631 36.2096 48.5552 39.4181 44.6113 39.4181ZM53.3079 26.7667C53.2386 26.9143 53.1589 27.0365 53.0642 27.1413C52.7314 27.5103 52.5184 27.9643 52.4481 28.4538C52.428 28.5921 52.3845 28.73 52.3038 28.9011C52.2653 28.9798 52.1876 29.0042 52.1558 29.0109C52.1226 29.0176 52.0396 29.0273 51.9703 28.9684C51.8762 28.8887 51.7848 28.7977 51.6951 28.6999C51.4574 28.4397 51.2303 28.1193 51.009 27.7825C51.0244 27.7564 51.0455 27.7353 51.0589 27.7075L51.1276 27.5612L51.4825 27.7283C51.5484 27.7591 51.6181 27.7738 51.6864 27.7738C51.8668 27.7738 52.0393 27.672 52.1213 27.4982C52.1521 27.4323 52.1668 27.3626 52.1668 27.294C52.1668 27.1139 52.0651 26.9414 51.8913 26.8594L51.5357 26.692L51.6043 26.5457C51.6177 26.5175 51.6251 26.4877 51.6355 26.4586C52.0343 26.4144 52.4247 26.3846 52.7749 26.4027C52.9075 26.4094 53.0354 26.4215 53.1583 26.4436C53.2477 26.4596 53.2932 26.5293 53.3086 26.5584C53.3237 26.5869 53.3551 26.6629 53.3079 26.7667Z" fill="white"/>
<path d="M15.6117 24C11.1388 24 7.5 27.6388 7.5 32.1117C7.5 36.585 11.1388 40.2238 15.6117 40.2238C20.0847 40.2238 23.7235 36.585 23.7235 32.1117C23.7235 27.6388 20.0847 24 15.6117 24ZM15.6117 39.264C11.6685 39.264 8.45991 36.0554 8.45991 32.1119C8.45991 28.1684 11.6685 24.9601 15.6117 24.9601C19.555 24.9601 22.7636 28.1684 22.7636 32.1119C22.7636 36.0555 19.5553 39.264 15.6117 39.264ZM17.8966 33.1455H13.3275C13.0624 33.1455 12.8474 33.3601 12.8474 33.6256C12.8474 35.1869 14.0876 36.4572 15.6117 36.4572C17.1361 36.4572 18.3767 35.1869 18.3767 33.6256C18.3763 33.3601 18.1617 33.1455 17.8966 33.1455ZM15.6117 35.4973C14.7767 35.4973 14.0722 34.9057 13.8676 34.1055H17.3561C17.1515 34.9057 16.4469 35.4973 15.6117 35.4973ZM12.4647 31.5159C11.9729 31.5159 11.6016 31.0626 11.6016 30.4616C11.6016 29.8606 11.9726 29.4072 12.4647 29.4072C12.9566 29.4072 13.3275 29.8602 13.3275 30.4616C13.3275 31.0626 12.9566 31.5159 12.4647 31.5159ZM19.6222 30.4616C19.6222 31.0626 19.2509 31.5159 18.7591 31.5159C18.2673 31.5159 17.8963 31.0626 17.8963 30.4616C17.8963 29.8606 18.2669 29.4072 18.7591 29.4072C19.2509 29.4072 19.6222 29.8602 19.6222 30.4616Z" fill="white"/>
<path d="M30.6117 35C26.1388 35 22.5 38.6388 22.5 43.1117C22.5 47.585 26.1388 51.2238 30.6117 51.2238C35.0847 51.2238 38.7235 47.585 38.7235 43.1117C38.7235 38.6388 35.0847 35 30.6117 35ZM30.6117 50.264C26.6685 50.264 23.4599 47.0554 23.4599 43.1119C23.4599 39.1684 26.6685 35.9601 30.6117 35.9601C34.555 35.9601 37.7636 39.1684 37.7636 43.1119C37.7636 47.0555 34.5553 50.264 30.6117 50.264ZM32.8966 44.1455H28.3275C28.0624 44.1455 27.8474 44.3601 27.8474 44.6256C27.8474 46.1869 29.0876 47.4572 30.6117 47.4572C32.1361 47.4572 33.3767 46.1869 33.3767 44.6256C33.3763 44.3601 33.1617 44.1455 32.8966 44.1455ZM30.6117 46.4973C29.7767 46.4973 29.0722 45.9057 28.8676 45.1055H32.3561C32.1515 45.9057 31.4469 46.4973 30.6117 46.4973ZM27.4647 42.5159C26.9729 42.5159 26.6016 42.0626 26.6016 41.4616C26.6016 40.8606 26.9726 40.4072 27.4647 40.4072C27.9566 40.4072 28.3275 40.8602 28.3275 41.4616C28.3275 42.0626 27.9566 42.5159 27.4647 42.5159ZM34.6222 41.4616C34.6222 42.0626 34.2509 42.5159 33.7591 42.5159C33.2673 42.5159 32.8963 42.0626 32.8963 41.4616C32.8963 40.8606 33.2669 40.4072 33.7591 40.4072C34.2509 40.4072 34.6222 40.8602 34.6222 41.4616Z" fill="white"/>
</svg>
