<svg width="340" height="177" viewBox="0 0 340 177" fill="none" xmlns="http://www.w3.org/2000/svg">
<g clip-path="url(#clip0_75_181)" filter="url(#filter0_d_75_181)">
<g filter="url(#filter1_d_75_181)">
<path d="M160.452 69.3797C160.452 78.2839 160.452 87.188 160.452 96.0873C160.382 97.6323 159.885 99.1266 159.017 100.402C158.46 101.396 157.757 102.299 156.931 103.08C155.617 104.247 154.08 105.131 152.415 105.677C151.229 106.038 150.02 106.32 148.797 106.521C147.783 106.751 146.75 106.887 145.711 106.927C143.472 106.986 141.273 106.319 139.438 105.025C137.602 103.731 136.225 101.877 135.511 99.7358C135.14 98.4407 135.015 97.0866 135.143 95.7447C135.165 94.2553 135.539 92.7928 136.233 91.4784C137.448 89.2596 139.405 87.5489 141.755 86.6523C143.253 86.0694 144.787 85.5858 146.348 85.2045C147.355 84.9251 148.384 84.733 149.424 84.6302C150.319 84.5674 150.515 84.3889 150.515 83.5009C150.515 67.4976 150.525 51.491 150.544 35.4813C150.544 34.8298 150.706 34.5547 151.362 34.4003C156.792 33.1117 162.266 32.2478 167.868 32.769C170.29 33.0155 172.592 33.9493 174.509 35.462C174.665 35.6183 174.873 35.7092 175.093 35.7164C175.312 35.7236 175.526 35.6464 175.691 35.5006C180.643 32.4264 185.93 31.7218 191.442 33.5702C195.551 34.9649 197.704 38.1501 198.532 42.315C198.993 44.7886 199.202 47.3032 199.154 49.8196C199.121 55.4565 199.015 61.0982 199.197 66.7109C199.408 73.0669 199.403 79.4228 199.365 85.774C199.365 88.6696 198.929 91.5653 197.298 94.0797C196.567 95.2351 195.633 96.2459 194.542 97.0622C193.632 97.689 192.672 98.2379 191.671 98.7031C190.663 99.119 189.612 99.4185 188.537 99.5959C186.593 100.018 184.601 100.181 182.614 100.078C181.063 100.018 179.56 99.5163 178.279 98.6307C176.487 97.5188 175.094 95.8583 174.304 93.8914C173.926 92.9262 173.481 91.961 173.581 90.8414C173.696 89.6011 173.423 88.3559 173.811 87.1108C174.253 85.4271 175.099 83.8791 176.275 82.6032C177.671 81.1898 179.387 80.1398 181.275 79.5435C182.762 79.085 184.279 78.7279 185.772 78.3177C186.729 78.0571 187.719 77.9461 188.695 77.7482C189.025 77.6806 189.14 77.5793 189.116 77.2656C189.116 77.2173 189.116 77.1642 189.116 77.1111C189.116 67.5941 189.116 58.0738 189.116 48.5504C189.133 47.0031 188.864 45.4662 188.322 44.0187C187.365 41.5767 185.069 40.9155 182.619 41.3257C181.534 41.4953 180.485 41.846 179.514 42.3633C179.236 42.5177 179.064 42.6625 179.174 43.0148C179.763 44.9453 179.787 46.9191 179.787 48.8978C179.787 55.331 179.787 61.7642 179.787 68.2022C179.787 68.7958 179.619 68.9309 179.059 68.9213C176.227 68.8923 173.394 68.8923 170.562 68.9213C169.945 68.9213 169.806 68.7427 169.806 68.1443C169.806 61.5325 169.793 54.9192 169.768 48.3042C169.785 46.7575 169.489 45.2235 168.897 43.7967C168.613 43.1019 168.144 42.4999 167.542 42.057C166.94 41.6141 166.228 41.3477 165.486 41.2871C163.961 41.1511 162.425 41.216 160.917 41.4801C160.438 41.5429 160.476 41.8662 160.472 42.204C160.472 44.9549 160.443 47.7106 160.443 50.4615C160.443 56.7676 160.443 63.0737 160.443 69.3797H160.452Z" fill="url(#paint0_linear_75_181)"/>
</g>
<g filter="url(#filter2_d_75_181)">
<path d="M121.024 68.6366C122.837 69.3026 124.583 70.0361 126.444 70.374C129.001 70.9054 131.635 70.9284 134.2 70.4415C137.764 69.6838 139.65 66.5807 138.583 63.2024C137.989 61.3444 136.587 60.3357 134.827 59.7807C132.913 59.1726 130.908 59.1533 128.918 59.163C128.152 59.163 127.133 59.4284 126.698 59.0423C126.263 58.6562 126.554 57.5414 126.54 56.7499C126.54 55.3359 126.54 53.9218 126.54 52.503C126.54 52.0204 126.674 51.9045 127.143 51.8997C129.205 51.8707 131.277 52.0783 133.32 51.6005C135.937 50.9924 137.276 49.3467 137.233 46.7744C137.2 44.6702 135.674 43.0487 133.301 42.6481C130.31 42.1655 127.559 42.928 124.88 44.2359C124.476 44.4136 124.09 44.6301 123.727 44.8826C123.248 45.2445 123.071 45.0611 122.851 44.5978C122.004 42.7832 121.124 40.9879 120.258 39.1878C120.124 38.9127 119.952 38.7052 120.368 38.4398C126.109 35.0277 132.2 33.8308 138.64 35.9495C144.429 37.8799 147.477 43.9463 145.606 49.4915C144.859 51.8166 143.249 53.7602 141.114 54.916C141.229 54.9965 141.349 55.0706 141.472 55.138C146.219 57.276 148.171 61.5712 147.692 66.5855C147.003 73.7764 142.114 76.7975 136.631 77.8544C130.951 78.9499 125.42 78.144 119.995 76.3101C119.483 76.1363 119.282 75.9384 119.44 75.3448C120 73.1152 120.492 70.8904 121.024 68.6366Z" fill="url(#paint1_linear_75_181)"/>
</g>
<g filter="url(#filter3_d_75_181)">
<path d="M171.792 20.8728C171.486 24.4393 170.036 27.3301 167.189 29.3909C165.247 30.8579 162.842 31.5613 160.424 31.3696C157.939 31.1945 155.596 30.1413 153.805 28.3952C152.015 26.6492 150.892 24.3222 150.635 21.8236C150.345 19.2529 151.003 16.6646 152.482 14.5511C153.962 12.4377 156.16 10.9466 158.658 10.3616C164.074 9.13095 170.074 12.0121 171.629 19.0823C171.479 16.9994 171.815 14.91 172.611 12.9821C173.407 11.0542 174.641 9.34167 176.213 7.98234C178.428 5.95283 181.297 4.79934 184.289 4.73438C190.38 4.59925 195.552 8.20916 197.327 13.9039C199.69 21.4616 195.628 27.8658 190.045 30.2499C188.256 31.0582 186.307 31.442 184.347 31.3717C182.388 31.3014 180.471 30.779 178.744 29.8445C175.117 27.9382 172.887 24.864 171.792 20.8728ZM158.898 25.2549L159.046 25.3225L159.022 25.1439C158.768 24.6613 158.845 24.0677 158.41 23.6961C158.06 23.3232 157.827 22.855 157.74 22.3496C157.606 21.867 157.74 21.6595 158.28 21.6739C159.864 21.7126 161.443 21.6739 163.027 21.6739C163.414 21.6739 163.984 21.4616 164.165 21.8042C164.4 22.2531 164.103 22.7695 163.859 23.2521C163.794 23.39 163.709 23.517 163.606 23.6285C163.103 24.1111 163.127 24.7433 162.859 25.4142C165.031 24.2945 166.18 22.7019 166.141 20.2985C166.115 19.5132 165.908 18.7447 165.538 18.0535C165.167 17.3623 164.643 16.7672 164.006 16.3149C163.369 15.8627 162.636 15.5656 161.866 15.447C161.096 15.3285 160.309 15.3917 159.567 15.6317C158.452 15.9535 157.478 16.6476 156.804 17.6006C156.13 18.5536 155.797 19.7089 155.859 20.8776C155.898 21.8238 156.205 22.7389 156.744 23.5146C157.282 24.2903 158.03 24.8943 158.898 25.2549V25.2549ZM176.897 17.6731C176.804 18.8458 177.024 20.0221 177.533 21.0803C178.18 22.3454 179.157 23.4086 180.358 24.1553C181.559 24.9019 182.94 25.3038 184.351 25.3176C185.591 25.3754 186.827 25.1387 187.96 24.6265C189.092 24.1143 190.09 23.3411 190.872 22.3689C192.786 20.173 193.202 17.6828 192.155 15.067C191.452 13.2274 190.087 11.7229 188.333 10.8542C186.578 9.98543 184.563 9.81642 182.691 10.3809C181.068 10.7907 179.622 11.7256 178.576 13.0425C177.53 14.3595 176.94 15.986 176.897 17.6731V17.6731ZM162.864 23.2859C162.749 23.0397 163.084 22.5812 162.634 22.4654C162.239 22.3641 161.824 22.3641 161.429 22.4654C161.122 22.5523 161.242 22.948 161.232 23.2135C161.223 23.4789 161.137 23.6333 160.984 23.6382C160.668 23.6382 160.778 23.3389 160.778 23.1556C160.778 22.5812 160.524 22.4172 159.955 22.3786C159.175 22.3206 158.998 22.6054 159.07 23.3148C159.102 23.8137 159.219 24.3034 159.414 24.7626C159.544 25.0621 159.756 25.3178 160.025 25.4995C160.294 25.6812 160.609 25.7813 160.933 25.7879C161.256 25.7945 161.575 25.7073 161.851 25.5367C162.128 25.3661 162.349 25.1193 162.491 24.8254C162.746 24.3539 162.875 23.8231 162.864 23.2859V23.2859Z" fill="#FF94BA" fill-opacity="0.69" shape-rendering="crispEdges"/>
</g>
<g filter="url(#filter4_d_75_181)">
<path d="M218.622 37.8606V78.3418L216.144 76.8457L203.944 69.457C203.812 69.3802 203.676 69.3109 203.537 69.2495C202.422 68.7186 201.843 68.0381 201.872 66.5903C201.987 60.6011 201.924 54.6071 201.91 48.6131C201.882 48.4021 201.917 48.1873 202.012 47.997C202.107 47.8067 202.256 47.6497 202.441 47.5466C207.746 44.3517 213.044 41.1488 218.335 37.9378C218.428 37.9025 218.524 37.8766 218.622 37.8606Z" fill="url(#paint2_linear_75_181)"/>
</g>
<path d="M176.897 17.6732C176.94 15.986 177.53 14.3595 178.576 13.0426C179.622 11.7256 181.068 10.7908 182.691 10.381C184.563 9.8165 186.578 9.98551 188.333 10.8543C190.087 11.723 191.452 13.2275 192.154 15.0671C193.202 17.6829 192.762 20.1731 190.872 22.369C190.09 23.3411 189.092 24.1144 187.96 24.6266C186.827 25.1388 185.591 25.3755 184.351 25.3177C182.94 25.3039 181.559 24.902 180.358 24.1554C179.156 23.4087 178.18 22.3455 177.533 21.0804C177.024 20.0222 176.804 18.8459 176.897 17.6732ZM184.767 22.5862C185.748 22.7261 186.858 22.5041 187.968 22.4317C190.308 22.2918 191.375 21.1383 191.375 19.0149C191.39 18.888 191.379 18.7594 191.343 18.6369C191.307 18.5144 191.247 18.4006 191.166 18.3025C191.085 18.2044 190.985 18.1241 190.872 18.0665C190.759 18.0089 190.635 17.9752 190.509 17.9676C189.667 17.8325 188.815 17.7215 187.963 17.6684C185.764 17.4946 183.555 17.4946 181.356 17.6684C180.504 17.7504 179.653 17.8518 178.806 17.9772C178.613 17.9748 178.426 18.0392 178.276 18.1596C178.125 18.28 178.02 18.4491 177.978 18.6384C177.891 19.0517 177.89 19.4786 177.974 19.8926C178.058 20.3065 178.225 20.6986 178.465 21.0444C178.706 21.3903 179.015 21.6825 179.372 21.9029C179.729 22.1233 180.128 22.2672 180.543 22.3255C181.942 22.5228 183.354 22.6099 184.767 22.5862V22.5862ZM181.418 13.4166C180.485 13.3152 179.179 14.8644 179.174 15.8296C179.174 16.2785 179.495 16.1723 179.691 16.0082C180.844 15.043 181.968 15.1202 183.112 16.0082C183.337 16.1819 183.59 16.2447 183.628 15.8055C183.662 14.8982 182.298 13.4118 181.418 13.3973V13.4166ZM187.954 13.4166C187.04 13.4166 185.681 14.8644 185.724 15.8007C185.748 16.3122 186.03 16.1723 186.279 15.9937C186.789 15.5746 187.425 15.3446 188.083 15.3422C188.636 15.3775 189.161 15.5983 189.576 15.9696C189.636 16.0329 189.713 16.0791 189.796 16.1036C189.88 16.1281 189.969 16.1302 190.054 16.1095C190.217 16.0613 190.178 15.9069 190.178 15.791C190.169 14.8113 188.839 13.3973 187.93 13.3973L187.954 13.4166Z" fill="#FFCC4D"/>
<path d="M158.898 25.255C158.029 24.8943 157.282 24.2904 156.744 23.5147C156.205 22.7389 155.898 21.8238 155.859 20.8777C155.797 19.709 156.13 18.5536 156.804 17.6007C157.478 16.6477 158.452 15.9535 159.567 15.6317C160.309 15.3917 161.096 15.3285 161.866 15.4471C162.636 15.5656 163.369 15.8627 164.006 16.315C164.643 16.7672 165.167 17.3623 165.538 18.0535C165.908 18.7447 166.115 19.5132 166.141 20.2986C166.18 22.7116 165.031 24.2946 162.859 25.4142C163.127 24.7434 163.103 24.0919 163.605 23.6286C163.709 23.517 163.794 23.39 163.859 23.2521C164.103 22.7695 164.4 22.2531 164.165 21.8043C163.988 21.4616 163.414 21.6788 163.027 21.674C161.443 21.674 159.864 21.674 158.28 21.674C157.716 21.674 157.606 21.8863 157.74 22.3496C157.827 22.855 158.06 23.3233 158.41 23.6961C158.845 24.087 158.768 24.6951 159.022 25.144L158.898 25.255ZM160.945 19.1644C161.127 17.8517 159.936 17.041 158.941 16.9975C158.659 16.9839 158.377 17.0281 158.112 17.1276C157.848 17.2271 157.606 17.3797 157.401 17.5762C157.197 17.7727 157.034 18.009 156.923 18.2708C156.812 18.5326 156.755 18.8145 156.755 19.0993C156.755 19.3841 156.812 19.6659 156.923 19.9277C157.034 20.1895 157.197 20.4258 157.401 20.6224C157.606 20.8189 157.848 20.9715 158.112 21.0709C158.377 21.1704 158.659 21.2147 158.941 21.201C159.969 21.1962 161.156 20.1634 160.945 19.1644ZM163.007 18.7494C162.732 18.8102 162.475 18.9359 162.257 19.1163C162.039 19.2966 161.867 19.5265 161.754 19.787C161.706 19.8787 161.658 19.98 161.754 20.0621C161.804 20.1028 161.866 20.125 161.931 20.125C161.995 20.125 162.058 20.1028 162.108 20.0621C162.423 19.8587 162.789 19.7507 163.163 19.7507C163.537 19.7507 163.903 19.8587 164.218 20.0621C164.337 20.1296 164.467 20.1827 164.553 20.0621C164.575 20.018 164.587 19.9692 164.587 19.9197C164.587 19.8702 164.575 19.8214 164.553 19.7773C164.194 19.2706 163.845 18.759 163.007 18.7494Z" fill="#FFCC4D"/>
<path d="M162.864 23.2857C162.883 23.8376 162.754 24.3844 162.491 24.8687C162.35 25.1639 162.128 25.4121 161.851 25.5837C161.575 25.7553 161.255 25.843 160.93 25.8364C160.605 25.8298 160.289 25.7291 160.02 25.5464C159.75 25.3637 159.538 25.1067 159.409 24.8059C159.214 24.3466 159.097 23.857 159.065 23.3581C158.993 22.6487 159.17 22.3639 159.95 22.4218C160.52 22.4605 160.773 22.6245 160.773 23.1988C160.773 23.3726 160.663 23.6815 160.979 23.6815C161.132 23.6815 161.218 23.4595 161.228 23.2568C161.237 23.0541 161.118 22.5956 161.424 22.5087C161.819 22.4074 162.234 22.4074 162.629 22.5087C163.084 22.5811 162.759 23.0396 162.864 23.2857ZM160.888 24.1303L160.96 24.9218C161.041 24.6756 161.151 24.415 160.888 24.1303Z" fill="#E74680"/>
<path d="M159.022 25.144L159.046 25.3226L158.898 25.255L159.022 25.144Z" fill="#FCFBFC"/>
<path d="M184.767 22.5861C183.353 22.6085 181.939 22.5198 180.538 22.3207C180.123 22.2623 179.724 22.1184 179.367 21.898C179.01 21.6776 178.701 21.3854 178.461 21.0396C178.22 20.6937 178.053 20.3016 177.969 19.8877C177.885 19.4738 177.887 19.0469 177.973 18.6336C178.015 18.4442 178.12 18.2752 178.271 18.1548C178.422 18.0344 178.609 17.97 178.801 17.9724C179.648 17.8469 180.499 17.7456 181.351 17.6635C183.55 17.4898 185.759 17.4898 187.958 17.6635C188.81 17.7166 189.662 17.8276 190.504 17.9627C190.631 17.9697 190.755 18.0029 190.868 18.0602C190.982 18.1175 191.083 18.1978 191.164 18.2959C191.246 18.3941 191.307 18.5081 191.343 18.631C191.379 18.7538 191.39 18.8828 191.375 19.01C191.375 21.1335 190.308 22.2869 187.968 22.4269C186.844 22.5041 185.724 22.7261 184.767 22.5861ZM184.585 19.9897H188.781C189.494 19.9897 189.58 19.3864 189.652 18.9279C189.724 18.4695 189.25 18.6191 188.973 18.5708C186.915 18.1992 184.834 18.3006 182.753 18.3199C181.849 18.3199 180.949 18.4839 180.05 18.5756C179.739 18.6046 179.571 18.7204 179.686 19.0582C179.849 19.6084 180.05 20.0235 180.758 19.9849C182.026 19.9559 183.298 19.9897 184.571 19.9897H184.585ZM184.705 20.646C183.839 20.646 182.973 20.646 182.107 20.646C181.602 20.5923 181.091 20.6232 180.595 20.7377C180.356 20.8246 180.179 20.897 180.193 21.2203C180.208 21.5437 180.375 21.5582 180.59 21.5919C181.129 21.7065 181.674 21.7855 182.222 21.8284C183.849 21.8622 185.48 21.8284 187.107 21.8284C187.684 21.809 188.258 21.7215 188.815 21.5678C188.903 21.5605 188.986 21.5195 189.045 21.4532C189.105 21.3868 189.137 21.3001 189.135 21.2107C189.148 21.1087 189.121 21.0058 189.061 20.9231C189 20.8405 188.91 20.7845 188.81 20.7667C188.543 20.6851 188.266 20.646 187.987 20.6509L184.705 20.646Z" fill="#5E447D"/>
<path d="M181.418 13.3971C182.322 13.3971 183.686 14.898 183.629 15.8102C183.595 16.2493 183.337 16.1866 183.112 16.0129C181.968 15.12 180.844 15.0476 179.691 16.0129C179.495 16.177 179.169 16.2831 179.174 15.8343C179.155 14.8256 180.461 13.2958 181.418 13.3971Z" fill="#5D437C"/>
<path d="M187.93 13.3972C188.839 13.3972 190.169 14.8113 190.159 15.7717C190.159 15.8875 190.198 16.0419 190.035 16.0902C189.95 16.1108 189.861 16.1088 189.777 16.0842C189.693 16.0597 189.617 16.0135 189.556 15.9502C189.142 15.5789 188.617 15.3581 188.064 15.3228C187.406 15.3252 186.77 15.5552 186.26 15.9743C186.011 16.1529 185.729 16.2929 185.705 15.7813C185.657 14.845 187.016 13.3972 187.93 13.3972Z" fill="#5D437C"/>
<path d="M160.945 19.1644C161.156 20.1634 159.988 21.1962 158.945 21.2011C158.663 21.2147 158.382 21.1704 158.117 21.071C157.852 20.9715 157.611 20.8189 157.406 20.6224C157.202 20.4259 157.039 20.1895 156.928 19.9277C156.817 19.6659 156.76 19.3841 156.76 19.0993C156.76 18.8145 156.817 18.5326 156.928 18.2708C157.039 18.009 157.202 17.7727 157.406 17.5762C157.611 17.3797 157.852 17.2271 158.117 17.1276C158.382 17.0282 158.663 16.9839 158.945 16.9975C159.936 17.041 161.127 17.8566 160.945 19.1644ZM160.615 19.01C160.601 18.5602 160.413 18.1339 160.091 17.8225C159.769 17.5112 159.339 17.3397 158.893 17.345C158.664 17.3496 158.439 17.4012 158.231 17.4967C158.023 17.5922 157.836 17.7295 157.682 17.9003C157.529 18.0711 157.411 18.2718 157.337 18.49C157.263 18.7082 157.234 18.9393 157.252 19.1693C157.278 19.6182 157.47 20.0411 157.789 20.3546C158.109 20.6681 158.533 20.8495 158.979 20.8632C159.438 20.8334 159.868 20.6222 160.174 20.2753C160.48 19.9285 160.639 19.4739 160.615 19.01V19.01Z" fill="#60467E"/>
<path d="M163.007 18.7493C163.845 18.7493 164.199 19.2705 164.558 19.7676C164.58 19.8117 164.591 19.8605 164.591 19.9099C164.591 19.9594 164.58 20.0082 164.558 20.0523C164.471 20.1778 164.342 20.1247 164.223 20.0523C163.908 19.849 163.542 19.7409 163.168 19.7409C162.794 19.7409 162.428 19.849 162.113 20.0523C162.063 20.093 162 20.1153 161.936 20.1153C161.871 20.1153 161.809 20.093 161.759 20.0523C161.668 19.9703 161.716 19.8689 161.759 19.7772C161.872 19.5191 162.044 19.2915 162.261 19.1129C162.478 18.9344 162.734 18.8098 163.007 18.7493V18.7493Z" fill="#5E447D"/>
<path d="M160.888 24.1306C161.151 24.3961 161.041 24.6567 160.96 24.9221L160.888 24.1306Z" fill="#593F79"/>
<path d="M184.571 19.9896C183.298 19.9896 182.026 19.9558 180.743 19.9896C180.035 20.0186 179.834 19.6132 179.672 19.063C179.576 18.7107 179.724 18.5804 180.035 18.5804C180.935 18.4887 181.834 18.3343 182.739 18.3246C184.81 18.3246 186.892 18.204 188.958 18.5756C189.236 18.6238 189.705 18.4839 189.638 18.9327C189.571 19.3815 189.48 19.9944 188.767 19.9944L184.571 19.9896Z" fill="#D9D9D9"/>
<path d="M184.691 20.6459H187.973C188.251 20.6411 188.529 20.6801 188.796 20.7618C188.896 20.7795 188.986 20.8355 189.046 20.9182C189.107 21.0008 189.134 21.1038 189.121 21.2058C189.123 21.2952 189.09 21.3819 189.031 21.4482C188.971 21.5146 188.889 21.5555 188.8 21.5629C188.243 21.7166 187.67 21.804 187.092 21.8235C185.466 21.8235 183.834 21.8476 182.207 21.8235C181.659 21.7806 181.114 21.7016 180.576 21.587C180.361 21.5532 180.188 21.4808 180.179 21.2154C180.169 20.95 180.342 20.8438 180.581 20.7328C181.076 20.6183 181.587 20.5873 182.093 20.6411C182.959 20.6266 183.81 20.6459 184.691 20.6459Z" fill="#D9D9D9"/>
<path d="M160.615 19.0098C160.639 19.4737 160.48 19.9283 160.174 20.2751C159.868 20.622 159.438 20.8332 158.979 20.8631C158.533 20.8494 158.109 20.6679 157.789 20.3544C157.47 20.0409 157.278 19.6181 157.252 19.1691C157.234 18.9392 157.263 18.708 157.337 18.4898C157.411 18.2716 157.529 18.0709 157.682 17.9001C157.836 17.7293 158.023 17.592 158.231 17.4965C158.439 17.401 158.664 17.3494 158.893 17.3448C159.339 17.3396 159.769 17.511 160.091 17.8224C160.413 18.1337 160.601 18.5601 160.615 19.0098V19.0098ZM159.065 19.9751C159.572 20.033 159.787 19.5359 159.802 19.0726C159.81 18.9635 159.795 18.8539 159.758 18.7511C159.721 18.6482 159.663 18.5544 159.588 18.4759C159.512 18.3975 159.421 18.3361 159.32 18.2958C159.219 18.2556 159.111 18.2374 159.003 18.2425C158.433 18.2425 158.046 18.4741 158.046 19.0388C158.051 19.5359 158.319 19.9558 159.065 19.9799V19.9751Z" fill="#D9D9D9"/>
<path d="M159.065 19.9802C158.319 19.9802 158.051 19.5362 158.046 19.0439C158.046 18.4793 158.433 18.2283 159.003 18.2476C159.111 18.2425 159.219 18.2607 159.32 18.3009C159.421 18.3412 159.512 18.4026 159.588 18.481C159.663 18.5595 159.721 18.6533 159.758 18.7562C159.795 18.859 159.81 18.9686 159.802 19.0777C159.787 19.541 159.572 20.0381 159.065 19.9802Z" fill="#5B417B"/>
</g>
<g filter="url(#filter5_d_75_181)">
<path d="M47.5408 138V168H46.2208V139.92L32.0608 168.56L17.9808 139.56V168H16.6608V138H18.5408L32.0608 165.84L45.7008 138H47.5408ZM148.563 138V168H147.243V139.92L133.083 168.56L119.003 139.56V168H117.683V138H119.563L133.083 165.84L146.723 138H148.563ZM252.368 138V168H251.048V139.92L236.888 168.56L222.808 139.56V168H221.488V138H223.368L236.888 165.84L250.528 138H252.368Z" fill="#E74680"/>
<path d="M60.5311 168.6C59.2311 168.6 58.0711 168.33 57.0511 167.79C56.0311 167.23 55.2311 166.44 54.6511 165.42C54.0711 164.4 53.7811 163.21 53.7811 161.85V145.5H54.7711V161.82C54.7711 163.02 55.0211 164.07 55.5211 164.97C56.0211 165.85 56.7011 166.53 57.5611 167.01C58.4411 167.49 59.4211 167.73 60.5011 167.73C61.5811 167.73 62.5511 167.5 63.4111 167.04C64.2911 166.56 64.9711 165.88 65.4511 165C65.9511 164.1 66.2011 163.04 66.2011 161.82V145.5H67.1911V161.79C67.1911 163.17 66.9111 164.38 66.3511 165.42C65.7911 166.44 65.0011 167.23 63.9811 167.79C62.9811 168.33 61.8311 168.6 60.5311 168.6ZM77.3752 168.42C74.8752 168.42 72.9352 167.39 71.5552 165.33V163.71C72.0952 164.91 72.8752 165.85 73.8952 166.53C74.9352 167.21 76.1752 167.55 77.6152 167.55C78.6152 167.55 79.5352 167.33 80.3752 166.89C81.2352 166.45 81.9152 165.83 82.4152 165.03C82.9152 164.23 83.1652 163.31 83.1652 162.27C83.1652 161.33 83.0052 160.52 82.6852 159.84C82.3652 159.16 81.8352 158.51 81.0952 157.89C80.3552 157.25 79.2852 156.5 77.8852 155.64L76.9252 155.04C76.0452 154.5 75.3352 154.02 74.7952 153.6C74.2552 153.18 73.7852 152.69 73.3852 152.13C72.8652 151.35 72.6052 150.45 72.6052 149.43C72.6052 148.07 73.0452 147.01 73.9252 146.25C74.8052 145.49 75.9252 145.11 77.2852 145.11C79.1252 145.11 80.5852 145.79 81.6652 147.15V148.68C81.2052 147.84 80.5752 147.18 79.7752 146.7C78.9752 146.22 78.0952 145.98 77.1352 145.98C76.1352 145.98 75.2952 146.29 74.6152 146.91C73.9352 147.53 73.5952 148.36 73.5952 149.4C73.5952 150.42 73.9052 151.3 74.5252 152.04C75.1652 152.76 76.2352 153.55 77.7352 154.41C79.5752 155.49 81.0052 156.47 82.0252 157.35C82.7452 158.01 83.2652 158.74 83.5852 159.54C83.9252 160.34 84.0952 161.23 84.0952 162.21C84.0952 163.45 83.8052 164.54 83.2252 165.48C82.6452 166.42 81.8452 167.15 80.8252 167.67C79.8052 168.17 78.6552 168.42 77.3752 168.42ZM88.5938 145.5H89.5838V168H88.5938V145.5ZM105.759 168.6C103.659 168.6 101.729 168.09 99.9689 167.07C98.2089 166.03 96.8089 164.61 95.7689 162.81C94.7489 160.99 94.2389 158.95 94.2389 156.69C94.2389 154.51 94.7689 152.52 95.8289 150.72C96.9089 148.92 98.3389 147.5 100.119 146.46C101.919 145.42 103.829 144.9 105.849 144.9C107.249 144.9 108.359 145.03 109.179 145.29C109.999 145.53 110.949 145.96 112.029 146.58V147.69C111.009 146.99 110.059 146.5 109.179 146.22C108.319 145.92 107.239 145.77 105.939 145.77C103.959 145.77 102.149 146.28 100.509 147.3C98.8889 148.3 97.5989 149.65 96.6389 151.35C95.6989 153.03 95.2289 154.84 95.2289 156.78C95.2289 158.74 95.7089 160.56 96.6689 162.24C97.6289 163.92 98.8989 165.26 100.479 166.26C102.079 167.24 103.799 167.73 105.639 167.73C106.959 167.73 108.109 167.58 109.089 167.28C110.069 166.96 111.049 166.47 112.029 165.81V166.92C111.069 167.5 110.079 167.92 109.059 168.18C108.059 168.46 106.959 168.6 105.759 168.6ZM165.543 168.6C163.443 168.6 161.493 168.05 159.693 166.95C157.893 165.85 156.463 164.39 155.403 162.57C154.363 160.73 153.843 158.76 153.843 156.66C153.843 154.58 154.373 152.64 155.433 150.84C156.493 149.02 157.923 147.58 159.723 146.52C161.523 145.44 163.473 144.9 165.573 144.9C167.693 144.9 169.643 145.43 171.423 146.49C173.203 147.55 174.613 148.99 175.653 150.81C176.713 152.61 177.243 154.56 177.243 156.66C177.243 158.82 176.713 160.82 175.653 162.66C174.613 164.48 173.193 165.93 171.393 167.01C169.613 168.07 167.663 168.6 165.543 168.6ZM165.543 167.73C167.463 167.73 169.243 167.24 170.883 166.26C172.523 165.26 173.823 163.92 174.783 162.24C175.763 160.54 176.253 158.7 176.253 156.72C176.253 154.76 175.773 152.94 174.813 151.26C173.853 149.58 172.553 148.25 170.913 147.27C169.273 146.27 167.493 145.77 165.573 145.77C163.633 145.77 161.843 146.27 160.203 147.27C158.563 148.25 157.253 149.58 156.273 151.26C155.313 152.94 154.833 154.76 154.833 156.72C154.833 158.7 155.313 160.54 156.273 162.24C157.253 163.92 158.563 165.26 160.203 166.26C161.843 167.24 163.623 167.73 165.543 167.73ZM199.045 145.5L188.755 168.51L178.465 145.5H179.545L188.845 166.23L198.025 145.5H199.045ZM202.272 145.5H203.262V168H202.272V145.5ZM208.877 145.5H216.947V146.37H209.867V158.61H215.777V159.48H209.867V167.13H216.947V168H208.877V145.5ZM269.348 168.6C267.248 168.6 265.298 168.05 263.498 166.95C261.698 165.85 260.268 164.39 259.208 162.57C258.168 160.73 257.648 158.76 257.648 156.66C257.648 154.58 258.178 152.64 259.238 150.84C260.298 149.02 261.728 147.58 263.528 146.52C265.328 145.44 267.278 144.9 269.378 144.9C271.498 144.9 273.448 145.43 275.228 146.49C277.008 147.55 278.418 148.99 279.458 150.81C280.518 152.61 281.048 154.56 281.048 156.66C281.048 158.82 280.518 160.82 279.458 162.66C278.418 164.48 276.998 165.93 275.198 167.01C273.418 168.07 271.468 168.6 269.348 168.6ZM269.348 167.73C271.268 167.73 273.048 167.24 274.688 166.26C276.328 165.26 277.628 163.92 278.588 162.24C279.568 160.54 280.058 158.7 280.058 156.72C280.058 154.76 279.578 152.94 278.618 151.26C277.658 149.58 276.358 148.25 274.718 147.27C273.078 146.27 271.298 145.77 269.378 145.77C267.438 145.77 265.648 146.27 264.008 147.27C262.368 148.25 261.058 149.58 260.078 151.26C259.118 152.94 258.638 154.76 258.638 156.72C258.638 158.7 259.118 160.54 260.078 162.24C261.058 163.92 262.368 165.26 264.008 166.26C265.648 167.24 267.428 167.73 269.348 167.73ZM296.289 168.6C294.189 168.6 292.239 168.05 290.439 166.95C288.639 165.85 287.209 164.39 286.149 162.57C285.109 160.73 284.589 158.76 284.589 156.66C284.589 154.58 285.119 152.64 286.179 150.84C287.239 149.02 288.669 147.58 290.469 146.52C292.269 145.44 294.219 144.9 296.319 144.9C298.439 144.9 300.389 145.43 302.169 146.49C303.949 147.55 305.359 148.99 306.399 150.81C307.459 152.61 307.989 154.56 307.989 156.66C307.989 158.82 307.459 160.82 306.399 162.66C305.359 164.48 303.939 165.93 302.139 167.01C300.359 168.07 298.409 168.6 296.289 168.6ZM296.289 167.73C298.209 167.73 299.989 167.24 301.629 166.26C303.269 165.26 304.569 163.92 305.529 162.24C306.509 160.54 306.999 158.7 306.999 156.72C306.999 154.76 306.519 152.94 305.559 151.26C304.599 149.58 303.299 148.25 301.659 147.27C300.019 146.27 298.239 145.77 296.319 145.77C294.379 145.77 292.589 146.27 290.949 147.27C289.309 148.25 287.999 149.58 287.019 151.26C286.059 152.94 285.579 154.76 285.579 156.72C285.579 158.7 286.059 160.54 287.019 162.24C287.999 163.92 289.309 165.26 290.949 166.26C292.589 167.24 294.369 167.73 296.289 167.73ZM312.782 145.5H313.742C317.322 145.5 320.082 146.48 322.022 148.44C323.982 150.38 324.962 153.15 324.962 156.75C324.962 158.81 324.462 160.7 323.462 162.42C322.462 164.14 321.102 165.5 319.382 166.5C317.682 167.5 315.802 168 313.742 168H312.782V145.5ZM313.982 167.07C315.822 167.07 317.502 166.62 319.022 165.72C320.542 164.8 321.742 163.55 322.622 161.97C323.522 160.39 323.972 158.65 323.972 156.75C323.972 153.43 323.102 150.88 321.362 149.1C319.642 147.3 317.182 146.4 313.982 146.4H313.742V167.07H313.982Z" fill="white"/>
</g>
<defs>
<filter id="filter0_d_75_181" x="73" y="0" width="194" height="147" filterUnits="userSpaceOnUse" color-interpolation-filters="sRGB">
<feFlood flood-opacity="0" result="BackgroundImageFix"/>
<feColorMatrix in="SourceAlpha" type="matrix" values="0 0 0 0 0 0 0 0 0 0 0 0 0 0 0 0 0 0 127 0" result="hardAlpha"/>
<feOffset dy="4"/>
<feGaussianBlur stdDeviation="2"/>
<feComposite in2="hardAlpha" operator="out"/>
<feColorMatrix type="matrix" values="0 0 0 0 0 0 0 0 0 0 0 0 0 0 0 0 0 0 0.25 0"/>
<feBlend mode="normal" in2="BackgroundImageFix" result="effect1_dropShadow_75_181"/>
<feBlend mode="normal" in="SourceGraphic" in2="effect1_dropShadow_75_181" result="shape"/>
</filter>
<filter id="filter1_d_75_181" x="115.094" y="32.5576" width="104.291" height="114.373" filterUnits="userSpaceOnUse" color-interpolation-filters="sRGB">
<feFlood flood-opacity="0" result="BackgroundImageFix"/>
<feColorMatrix in="SourceAlpha" type="matrix" values="0 0 0 0 0 0 0 0 0 0 0 0 0 0 0 0 0 0 127 0" result="hardAlpha"/>
<feOffset dy="20"/>
<feGaussianBlur stdDeviation="10"/>
<feComposite in2="hardAlpha" operator="out"/>
<feColorMatrix type="matrix" values="0 0 0 0 0.905882 0 0 0 0 0.27451 0 0 0 0 0.501961 0 0 0 0.23 0"/>
<feBlend mode="normal" in2="BackgroundImageFix" result="effect1_dropShadow_75_181"/>
<feBlend mode="normal" in="SourceGraphic" in2="effect1_dropShadow_75_181" result="shape"/>
</filter>
<filter id="filter2_d_75_181" x="99.3873" y="24.895" width="68.3753" height="83.4561" filterUnits="userSpaceOnUse" color-interpolation-filters="sRGB">
<feFlood flood-opacity="0" result="BackgroundImageFix"/>
<feColorMatrix in="SourceAlpha" type="matrix" values="0 0 0 0 0 0 0 0 0 0 0 0 0 0 0 0 0 0 127 0" result="hardAlpha"/>
<feOffset dy="10"/>
<feGaussianBlur stdDeviation="10"/>
<feComposite in2="hardAlpha" operator="out"/>
<feColorMatrix type="matrix" values="0 0 0 0 0.905882 0 0 0 0 0.27451 0 0 0 0 0.501961 0 0 0 0.97 0"/>
<feBlend mode="normal" in2="BackgroundImageFix" result="effect1_dropShadow_75_181"/>
<feBlend mode="normal" in="SourceGraphic" in2="effect1_dropShadow_75_181" result="shape"/>
</filter>
<filter id="filter3_d_75_181" x="145.568" y="-0.269287" width="77.4448" height="56.6699" filterUnits="userSpaceOnUse" color-interpolation-filters="sRGB">
<feFlood flood-opacity="0" result="BackgroundImageFix"/>
<feColorMatrix in="SourceAlpha" type="matrix" values="0 0 0 0 0 0 0 0 0 0 0 0 0 0 0 0 0 0 127 0" result="hardAlpha"/>
<feOffset dx="10" dy="10"/>
<feGaussianBlur stdDeviation="7.5"/>
<feComposite in2="hardAlpha" operator="out"/>
<feColorMatrix type="matrix" values="0 0 0 0 0 0 0 0 0 0 0 0 0 0 0 0 0 0 0.22 0"/>
<feBlend mode="normal" in2="BackgroundImageFix" result="effect1_dropShadow_75_181"/>
<feBlend mode="normal" in="SourceGraphic" in2="effect1_dropShadow_75_181" result="shape"/>
</filter>
<filter id="filter4_d_75_181" x="171.871" y="17.8606" width="76.7515" height="100.481" filterUnits="userSpaceOnUse" color-interpolation-filters="sRGB">
<feFlood flood-opacity="0" result="BackgroundImageFix"/>
<feColorMatrix in="SourceAlpha" type="matrix" values="0 0 0 0 0 0 0 0 0 0 0 0 0 0 0 0 0 0 127 0" result="hardAlpha"/>
<feOffset dy="10"/>
<feGaussianBlur stdDeviation="15"/>
<feComposite in2="hardAlpha" operator="out"/>
<feColorMatrix type="matrix" values="0 0 0 0 0.905882 0 0 0 0 0.27451 0 0 0 0 0.501961 0 0 0 1 0"/>
<feBlend mode="normal" in2="BackgroundImageFix" result="effect1_dropShadow_75_181"/>
<feBlend mode="normal" in="SourceGraphic" in2="effect1_dropShadow_75_181" result="shape"/>
</filter>
<filter id="filter5_d_75_181" x="12.6608" y="138" width="316.302" height="38.6001" filterUnits="userSpaceOnUse" color-interpolation-filters="sRGB">
<feFlood flood-opacity="0" result="BackgroundImageFix"/>
<feColorMatrix in="SourceAlpha" type="matrix" values="0 0 0 0 0 0 0 0 0 0 0 0 0 0 0 0 0 0 127 0" result="hardAlpha"/>
<feOffset dy="4"/>
<feGaussianBlur stdDeviation="2"/>
<feComposite in2="hardAlpha" operator="out"/>
<feColorMatrix type="matrix" values="0 0 0 0 0 0 0 0 0 0 0 0 0 0 0 0 0 0 0.25 0"/>
<feBlend mode="normal" in2="BackgroundImageFix" result="effect1_dropShadow_75_181"/>
<feBlend mode="normal" in="SourceGraphic" in2="effect1_dropShadow_75_181" result="shape"/>
</filter>
<linearGradient id="paint0_linear_75_181" x1="167.24" y1="32.5576" x2="174.395" y2="105.452" gradientUnits="userSpaceOnUse">
<stop offset="0.276042" stop-color="#FF6CA1"/>
<stop offset="0.520833" stop-color="#F75F96"/>
<stop offset="1" stop-color="#A9013E"/>
</linearGradient>
<linearGradient id="paint1_linear_75_181" x1="133.575" y1="34.895" x2="140.357" y2="77.0351" gradientUnits="userSpaceOnUse">
<stop stop-color="#F9649A"/>
<stop offset="1" stop-color="#DE3270"/>
</linearGradient>
<linearGradient id="paint2_linear_75_181" x1="210.247" y1="37.8606" x2="241.413" y2="72.9271" gradientUnits="userSpaceOnUse">
<stop stop-color="#FF70A3"/>
<stop offset="0.708877" stop-color="#E74680"/>
</linearGradient>
<clipPath id="clip0_75_181">
<rect width="186" height="139" fill="white" transform="translate(77)"/>
</clipPath>
</defs>
</svg>
