<svg width="64" height="63" viewBox="0 0 64 63" fill="none" xmlns="http://www.w3.org/2000/svg">
<rect x="0.5" width="63" height="63" rx="31.5" fill="white" fill-opacity="0.44"/>
<path d="M27.0417 30.8125C27.6053 30.8125 28.1458 30.5952 28.5443 30.2084C28.9428 29.8216 29.1667 29.297 29.1667 28.75C29.1667 28.203 28.9428 27.6784 28.5443 27.2916C28.1458 26.9048 27.6053 26.6875 27.0417 26.6875C26.4781 26.6875 25.9376 26.9048 25.5391 27.2916C25.1405 27.6784 24.9167 28.203 24.9167 28.75C24.9167 29.297 25.1405 29.8216 25.5391 30.2084C25.9376 30.5952 26.4781 30.8125 27.0417 30.8125ZM26.7187 36.0842C26.5951 35.9478 26.445 35.8365 26.2769 35.7567C26.1087 35.6769 25.926 35.6302 25.7392 35.6193C25.5524 35.6085 25.3652 35.6336 25.1885 35.6934C25.0117 35.7532 24.849 35.8463 24.7095 35.9675C24.5701 36.0886 24.4568 36.2354 24.3761 36.3993C24.2955 36.5632 24.2491 36.741 24.2396 36.9224C24.2302 37.1038 24.2578 37.2852 24.321 37.4562C24.3842 37.6272 24.4817 37.7843 24.6078 37.9185C25.5374 38.9286 26.6766 39.7364 27.9506 40.289C29.2246 40.8417 30.6046 41.1265 32 41.125C33.3954 41.1265 34.7754 40.8417 36.0494 40.289C37.3234 39.7364 38.4626 38.9286 39.3922 37.9185C39.6387 37.6462 39.7644 37.2905 39.7421 36.9287C39.7198 36.5669 39.5512 36.2282 39.2729 35.9865C38.9947 35.7447 38.6294 35.6193 38.2564 35.6376C37.8834 35.6559 37.533 35.8165 37.2813 36.0842C36.6176 36.8064 35.8038 37.3838 34.8935 37.7787C33.9832 38.1735 32.997 38.3767 32 38.375C29.9033 38.375 28.0192 37.4923 26.7187 36.0842ZM39.0833 28.75C39.0833 29.297 38.8594 29.8216 38.4609 30.2084C38.0624 30.5952 37.5219 30.8125 36.9583 30.8125C36.3947 30.8125 35.8542 30.5952 35.4557 30.2084C35.0572 29.8216 34.8333 29.297 34.8333 28.75C34.8333 28.203 35.0572 27.6784 35.4557 27.2916C35.8542 26.9048 36.3947 26.6875 36.9583 26.6875C37.5219 26.6875 38.0624 26.9048 38.4609 27.2916C38.8594 27.6784 39.0833 28.203 39.0833 28.75ZM49 31.5C49 29.3332 48.5603 27.1876 47.7059 25.1857C46.8516 23.1839 45.5994 21.3649 44.0208 19.8327C42.4422 18.3006 40.5682 17.0852 38.5056 16.256C36.4431 15.4268 34.2325 15 32 15C29.7675 15 27.5569 15.4268 25.4944 16.256C23.4318 17.0852 21.5578 18.3006 19.9792 19.8327C18.4006 21.3649 17.1484 23.1839 16.294 25.1857C15.4397 27.1876 15 29.3332 15 31.5C15 35.8761 16.7911 40.0729 19.9792 43.1673C23.1673 46.2616 27.4913 48 32 48C36.5087 48 40.8327 46.2616 44.0208 43.1673C47.2089 40.0729 49 35.8761 49 31.5ZM17.8333 31.5C17.8333 27.8533 19.3259 24.3559 21.9827 21.7773C24.6394 19.1987 28.2428 17.75 32 17.75C35.7572 17.75 39.3606 19.1987 42.0173 21.7773C44.6741 24.3559 46.1667 27.8533 46.1667 31.5C46.1667 35.1467 44.6741 38.6441 42.0173 41.2227C39.3606 43.8013 35.7572 45.25 32 45.25C28.2428 45.25 24.6394 43.8013 21.9827 41.2227C19.3259 38.6441 17.8333 35.1467 17.8333 31.5Z" fill="white"/>
</svg>
