<svg width="84" height="78" viewBox="0 0 84 78" fill="none" xmlns="http://www.w3.org/2000/svg">
<rect width="84" height="78" rx="39" fill="white" fill-opacity="0.2"/>
<path d="M58.6666 20.25H25.3333C23.0354 20.25 21.1666 22.1187 21.1666 24.4167V53.5833C21.1666 55.8812 23.0354 57.75 25.3333 57.75H58.6666C60.9645 57.75 62.8333 55.8812 62.8333 53.5833V24.4167C62.8333 22.1187 60.9645 20.25 58.6666 20.25ZM58.6687 32.75C58.6666 32.75 58.6666 32.75 58.6687 32.75H57.7L52.1437 24.4167H58.6666L58.6687 32.75ZM36.8666 32.75L31.3104 24.4167H36.7187L42.275 32.75H36.8666ZM47.2833 32.75L41.727 24.4167H47.1354L52.6916 32.75H47.2833ZM25.3333 24.4167H26.302L31.8583 32.75H25.3333V24.4167ZM25.3333 53.5833V36.9167H58.6666L58.6708 53.5833H25.3333Z" fill="white"/>
<path d="M37.8334 51.5L49.2917 45.25L37.8334 39V51.5Z" fill="white"/>
</svg>
