<svg width="80" height="80" viewBox="0 0 80 80" fill="none" xmlns="http://www.w3.org/2000/svg">
<rect width="80" height="80" rx="40" fill="white" fill-opacity="0.2"/>
<path d="M53.4026 20.186C53.3394 19.8171 53.1957 19.4657 52.9812 19.1554C52.7668 18.8452 52.4864 18.5833 52.1591 18.3875C51.8319 18.1916 51.4652 18.0663 51.084 18.0201C50.7028 17.9738 50.3158 18.0077 49.9491 18.1193L31.1366 23.8405C30.5896 24.0067 30.1115 24.3388 29.7721 24.7883C29.4327 25.2377 29.2498 25.781 29.25 26.3388V47.612C28.0392 46.7281 26.5572 46.268 25.0442 46.3063C23.5312 46.3445 22.0758 46.879 20.9137 47.8229C19.7517 48.7669 18.9512 50.0652 18.6418 51.5073C18.3325 52.9495 18.5325 54.4511 19.2093 55.7688C19.8862 57.0865 21.0003 58.1432 22.3712 58.7676C23.7421 59.392 25.2894 59.5475 26.7624 59.2091C28.2354 58.8706 29.5479 58.0579 30.4872 56.9026C31.4265 55.7474 31.9375 54.3173 31.9375 52.844V34.1868L50.75 28.463V35.9002C51.6718 35.9787 52.5721 36.1435 53.4375 36.3816V20.615C53.4375 20.4685 53.4241 20.3272 53.4026 20.186ZM61.5 50.228C61.5 53.3502 60.2258 56.3444 57.9578 58.5521C55.6898 60.7597 52.6137 62 49.4062 62C46.1988 62 43.1227 60.7597 40.8547 58.5521C38.5867 56.3444 37.3125 53.3502 37.3125 50.228C37.3125 47.1059 38.5867 44.1117 40.8547 41.904C43.1227 39.6963 46.1988 38.4561 49.4062 38.4561C52.6137 38.4561 55.6898 39.6963 57.9578 41.904C60.2258 44.1117 61.5 47.1059 61.5 50.228ZM55.4182 49.0901L47.3718 44.7737C47.1673 44.6636 46.9369 44.6073 46.7033 44.6104C46.4696 44.6135 46.2409 44.6758 46.0395 44.7912C45.8382 44.9066 45.6712 45.0712 45.5552 45.2686C45.4391 45.466 45.3779 45.6894 45.3777 45.9169V54.5497C45.3775 54.7773 45.4383 55.0011 45.5542 55.1989C45.67 55.3966 45.8369 55.5615 46.0384 55.6773C46.2398 55.793 46.4687 55.8555 46.7026 55.8587C46.9365 55.8619 47.1671 55.8057 47.3718 55.6955L55.4182 51.3791C55.6282 51.266 55.8033 51.1001 55.9252 50.8989C56.0471 50.6976 56.1114 50.4682 56.1114 50.2346C56.1114 50.0009 56.0471 49.7715 55.9252 49.5703C55.8033 49.369 55.6282 49.2032 55.4182 49.0901Z" fill="white"/>
</svg>
