<svg width="64" height="63" viewBox="0 0 64 63" fill="none" xmlns="http://www.w3.org/2000/svg">
<rect x="0.5" width="63" height="63" rx="31.5" fill="#D1D1D1" fill-opacity="0.44"/>
<path d="M41.6667 21.9052H35.8828L39.5883 18.242C39.7386 18.0928 39.8577 17.9158 39.939 17.7209C40.0203 17.526 40.0621 17.3171 40.0621 17.1062C40.0621 16.8953 40.0203 16.6864 39.939 16.4915C39.8577 16.2967 39.7386 16.1196 39.5883 15.9705C39.4381 15.8213 39.2598 15.703 39.0635 15.6223C38.8672 15.5415 38.6569 15.5 38.4444 15.5C38.0154 15.5 37.6039 15.6692 37.3006 15.9705L32 21.2494L26.6994 15.9705C26.5492 15.8213 26.3709 15.703 26.1746 15.6223C25.9784 15.5415 25.768 15.5 25.5556 15.5C25.3431 15.5 25.1328 15.5415 24.9365 15.6223C24.7402 15.703 24.5619 15.8213 24.4117 15.9705C24.1083 16.2717 23.9379 16.6802 23.9379 17.1062C23.9379 17.3171 23.9797 17.526 24.061 17.7209C24.1423 17.9158 24.2614 18.0928 24.4117 18.242L28.1172 21.9052H22.3333C21.0515 21.9052 19.8221 22.4108 18.9157 23.3108C18.0092 24.2108 17.5 25.4315 17.5 26.7043V42.701C17.5 43.9738 18.0092 45.1944 18.9157 46.0944C19.8221 46.9944 21.0515 47.5 22.3333 47.5H41.6667C42.9485 47.5 44.1779 46.9944 45.0844 46.0944C45.9908 45.1944 46.5 43.9738 46.5 42.701V26.7043C46.5 25.4315 45.9908 24.2108 45.0844 23.3108C44.1779 22.4108 42.9485 21.9052 41.6667 21.9052ZM43.2778 42.701C43.2778 43.1252 43.108 43.5321 42.8059 43.8321C42.5038 44.1321 42.094 44.3007 41.6667 44.3007H22.3333C21.906 44.3007 21.4962 44.1321 21.1941 43.8321C20.892 43.5321 20.7222 43.1252 20.7222 42.701V26.7043C20.7222 26.28 20.892 25.8731 21.1941 25.5731C21.4962 25.2731 21.906 25.1046 22.3333 25.1046H41.6667C42.094 25.1046 42.5038 25.2731 42.8059 25.5731C43.108 25.8731 43.2778 26.28 43.2778 26.7043V42.701Z" fill="white"/>
</svg>
