<svg width="17" height="20" viewBox="0 0 17 20" fill="none" xmlns="http://www.w3.org/2000/svg">
<path d="M3.77795 3.07412H6.29645C6.7464 3.07412 7.16206 2.83411 7.38692 2.44456C7.61179 2.05478 7.61179 1.57474 7.38692 1.18522C7.16206 0.795665 6.74635 0.555664 6.29645 0.555664H3.77795C2.77596 0.555664 1.81524 0.953563 1.10681 1.66221C0.398214 2.37064 0.000265555 3.33153 0.000265555 4.33334V16.2364C-0.0124706 17.2292 0.433518 18.1724 1.20912 18.7925C1.75744 19.2205 2.4349 19.4495 3.13034 19.442C3.82578 19.4346 4.49818 19.1913 5.03706 18.7517L7.55557 16.7086L10.0047 18.6981H10.0049C10.4713 19.089 11.0387 19.34 11.6417 19.4223C12.5192 19.5275 13.3999 19.2523 14.0616 18.6665C14.7233 18.0806 15.1029 17.2398 15.1047 16.3559V10.315C15.1047 9.86506 14.8647 9.4494 14.4751 9.22432C14.0854 8.99945 13.6055 8.99945 13.2158 9.22432C12.8262 9.4494 12.5862 9.86506 12.5862 10.315V16.3531C12.5893 16.578 12.4606 16.7837 12.2571 16.8795C12.0535 16.975 11.813 16.9427 11.6418 16.7969L8.24513 14.0235C8.05057 13.8658 7.80771 13.7797 7.55717 13.7797C7.30683 13.7797 7.06397 13.8658 6.86943 14.0235L3.46311 16.7969C3.29204 16.9427 3.05137 16.975 2.84805 16.8795C2.64449 16.7837 2.51581 16.578 2.51888 16.3531V4.33368C2.51888 3.99968 2.65152 3.6795 2.88758 3.44323C3.12386 3.20717 3.44402 3.07453 3.77803 3.07453L3.77795 3.07412Z" fill="white"/>
<path d="M10.074 2.12971C10.074 3.02365 11.1507 4.44989 13.0302 6.03646C13.3229 6.28306 13.7508 6.28306 14.0438 6.03646C15.9327 4.46243 16.9966 3.02365 16.9999 2.12971H16.9997C16.9997 1.71226 16.8339 1.31194 16.5388 1.01659C16.2434 0.721455 15.8431 0.555664 15.4257 0.555664C15.0539 0.555445 14.6905 0.66656 14.3824 0.874732C14.0745 1.0829 13.8358 1.37847 13.6974 1.7237L13.5369 2.12973L13.3764 1.72677H13.3762C13.2383 1.38114 13 1.08468 12.6919 0.876065C12.3838 0.667235 12.0202 0.555681 11.648 0.555681C11.2305 0.555681 10.8302 0.721472 10.5349 1.0166C10.2397 1.31195 10.0739 1.71227 10.0739 2.12973L10.074 2.12971Z" fill="white"/>
</svg>
